<?xml version="1.0" standalone="no"?>
<!DOCTYPE svg PUBLIC "-//W3C//DTD SVG 20010904//EN"
 "http://www.w3.org/TR/2001/REC-SVG-20010904/DTD/svg10.dtd">
<svg version="1.0" xmlns="http://www.w3.org/2000/svg"
 width="260.000000pt" height="260.000000pt" viewBox="0 0 260.000000 260.000000"
 preserveAspectRatio="xMidYMid meet">
<metadata>
Created by potrace 1.14, written by Peter Selinger 2001-2017
</metadata>
<g transform="translate(0.000000,260.000000) scale(0.100000,-0.100000)"
fill="#000000" stroke="none">
<path d="M0 1300 l0 -1300 1300 0 1300 0 0 1300 0 1300 -1300 0 -1300 0 0
-1300z m402 560 c49 -14 78 -44 193 -205 54 -75 100 -134 102 -131 3 2 53 71
111 153 91 126 114 152 154 171 38 19 56 22 90 17 70 -12 119 -78 104 -139 -3
-14 -71 -111 -151 -217 -80 -105 -145 -195 -145 -199 0 -4 66 -94 146 -201 80
-107 151 -205 156 -219 14 -38 -6 -95 -44 -122 -47 -33 -124 -31 -171 4 -19
15 -83 95 -143 178 -59 82 -112 146 -116 142 -5 -5 -57 -76 -116 -158 -91
-126 -115 -153 -155 -172 -37 -19 -55 -22 -89 -17 -70 12 -119 78 -104 140 3
13 74 115 157 225 l151 200 -135 179 c-75 98 -144 194 -153 214 -31 64 2 136
72 157 39 11 44 11 86 0z m1615 -23 c89 -31 189 -101 237 -166 209 -284 124
-726 -166 -869 -222 -109 -506 -71 -668 89 -210 207 -212 612 -5 825 59 60
168 119 259 140 94 21 254 13 343 -19z"/>
<path d="M1727 1616 c-60 -22 -103 -62 -134 -123 -24 -50 -28 -72 -31 -164 -7
-178 38 -277 145 -326 47 -22 65 -25 123 -21 161 12 240 119 240 323 0 107
-17 175 -60 234 -57 79 -182 113 -283 77z"/>
</g>
</svg>
